<svg width="32" height="32" viewBox="0 0 32 32" fill="none" xmlns="http://www.w3.org/2000/svg">
<path fill-rule="evenodd" clip-rule="evenodd" d="M16 26.0019C12.7785 26.0019 9.73403 24.5741 7.67459 22.0953L9.21292 20.8172C10.8922 22.8384 13.3728 24.0019 16 24.0019C18.6267 24.0019 21.1047 22.8388 22.7876 20.8166L24.3249 22.0959C22.2628 24.5737 19.222 26.0019 16 26.0019ZM16 2C8.26707 2 2 8.26707 2 16C2 23.7329 8.26707 30 16 30C23.7329 30 30 23.7329 30 16C30 8.26707 23.7329 2 16 2ZM0 16C0 7.1625 7.1625 0 16 0C24.8375 0 32 7.1625 32 16C32 24.8375 24.8375 32 16 32C7.1625 32 0 24.8375 0 16Z" fill="#403B45"/>
<path d="M13 13C13 14.1046 12.1046 15 11 15C9.89543 15 9 14.1046 9 13C9 11.8954 9.89543 11 11 11C12.1046 11 13 11.8954 13 13Z" fill="#403B45"/>
<path d="M23 13C23 14.1046 22.1046 15 21 15C19.8954 15 19 14.1046 19 13C19 11.8954 19.8954 11 21 11C22.1046 11 23 11.8954 23 13Z" fill="#403B45"/>
</svg>
