<svg width="32" height="32" viewBox="0 0 32 32" fill="none" xmlns="http://www.w3.org/2000/svg">
<path d="M31.5782 10.7458L27.4281 8.67114V0.761896C27.4281 0.341329 27.0876 0 26.6662 0H20.5711C20.1497 0 19.8092 0.341329 19.8092 0.761896V4.86166L16.3403 3.12758C16.2328 3.07425 16.1163 3.04758 15.9997 3.04758C15.8831 3.04758 15.7658 3.07425 15.6591 3.12758L0.42121 10.7465C0.0448334 10.9347 -0.107546 11.3926 0.0806421 11.769L1.60443 14.8166C1.79338 15.193 2.25052 15.3453 2.6269 15.1572L4.57126 14.1842V31.2377C4.57126 31.6583 4.91259 31.9996 5.33315 31.9996H26.6662C27.0876 31.9996 27.4281 31.6583 27.4281 31.2377V14.1842L29.3733 15.1564C29.7512 15.3461 30.2075 15.1914 30.3957 14.8158L31.9195 11.7682C32.1077 11.3919 31.9546 10.9347 31.5782 10.7458ZM25.9043 1.52379V3.04758H21.333V1.52379H25.9043ZM21.333 4.57138H25.9043V7.90924L21.333 5.62355V4.57138ZM25.9043 30.4758H6.09505V13.4223L15.9997 8.47L25.9043 13.4223V30.4758ZM29.3733 13.4528L16.341 6.9363C16.1269 6.82887 15.874 6.82887 15.6591 6.9363L2.6269 13.4528L1.785 11.7682L15.9997 4.66052L30.2152 11.7682L29.3733 13.4528Z" fill="#403B45"/>
<path d="M9.36586 15.4612C7.38798 17.4383 7.38798 20.6565 9.36586 22.6336L15.461 28.7288C15.6096 28.8774 15.8046 28.9521 15.9997 28.9521C16.1947 28.9521 16.3898 28.8774 16.5383 28.7288L22.6335 22.6336C24.6114 20.6565 24.6114 17.4383 22.6335 15.4612C20.8271 13.6547 17.9852 13.4985 15.9997 14.9926C14.0149 13.5 11.1731 13.6547 9.36586 15.4612ZM21.5562 16.5385C22.939 17.9221 22.939 20.1727 21.5562 21.5563L15.9997 27.1128L10.4432 21.5563C9.06034 20.1727 9.06034 17.9221 10.4432 16.5385C11.135 15.8467 12.0439 15.5008 12.9521 15.5008C13.8603 15.5008 14.7692 15.8467 15.461 16.5385C15.7589 16.8364 16.2404 16.8364 16.5383 16.5385C17.922 15.1556 20.1726 15.1556 21.5562 16.5385Z" fill="#403B45"/>
</svg>
