<svg width="32" height="32" viewBox="0 0 32 32" fill="none" xmlns="http://www.w3.org/2000/svg">
<mask id="path-1-inside-1_383_2671" fill="white">
<path d="M0 16.8633V17.5676V30.1678H7.16799V28.3904L7.19848 28.4014C9.07209 29.0245 11.7516 29.5785 14.3997 30.5255L14.5966 30.5921L14.7907 30.5477C15.623 30.3539 17.8653 29.6624 20.539 28.8035C23.2127 27.9446 26.2627 26.9299 28.5305 26.1471C29.6158 25.7712 30.1994 24.5574 29.8005 23.4795C29.3814 22.3767 28.1657 21.8807 27.1302 22.1985C26.2679 22.4628 22.2204 23.713 19.5629 24.4973C19.588 23.7393 19.7873 22.9196 19.1719 22.4369L19.1387 22.4037L19.0971 22.3869C16.11 20.6049 15.8569 20.374 11.6573 18.1419L11.4605 18.0448L11.2442 18.067C9.80001 18.2219 7.34643 18.628 7.16798 18.6576V16.8635L0 16.8633ZM1.41973 18.2832H5.75658V28.7481H1.41973V18.2832ZM11.1804 19.5087C15.0164 21.5518 15.457 21.8637 18.2929 23.5545C18.7529 23.9154 18.8754 24.3587 18.598 24.7579C18.449 24.9722 18.293 25.0571 18.0767 25.0932C17.8603 25.132 17.5616 25.0821 17.2198 24.9322C15.9427 24.3419 15.2478 23.9655 13.8369 23.1741L13.2185 22.8276L12.5253 24.0644L13.1436 24.4109C14.5637 25.2073 15.3137 25.6226 16.6347 26.2326H16.6458C17.1855 26.4731 17.7551 26.588 18.3151 26.4931C18.5475 26.4542 18.6993 26.2171 18.9113 26.1022L18.9335 26.1661L19.6156 25.9717C22.2766 25.1925 26.656 23.8369 27.5434 23.5649V23.5537C27.8788 23.451 28.3319 23.6203 28.4668 23.9751C28.5923 24.331 28.4286 24.6754 28.0647 24.8014C25.8123 25.579 22.7682 26.5909 20.1036 27.4468C17.5059 28.2813 15.3076 28.947 14.616 29.1161C11.9509 28.1906 9.30248 27.607 7.64492 27.0558L7.16798 26.9031V20.0929L7.28722 20.0761C7.28722 20.0761 9.7377 19.6799 11.1804 19.5106L11.1804 19.5087Z"/>
</mask>
<path d="M0 16.8633V17.5676V30.1678H7.16799V28.3904L7.19848 28.4014C9.07209 29.0245 11.7516 29.5785 14.3997 30.5255L14.5966 30.5921L14.7907 30.5477C15.623 30.3539 17.8653 29.6624 20.539 28.8035C23.2127 27.9446 26.2627 26.9299 28.5305 26.1471C29.6158 25.7712 30.1994 24.5574 29.8005 23.4795C29.3814 22.3767 28.1657 21.8807 27.1302 22.1985C26.2679 22.4628 22.2204 23.713 19.5629 24.4973C19.588 23.7393 19.7873 22.9196 19.1719 22.4369L19.1387 22.4037L19.0971 22.3869C16.11 20.6049 15.8569 20.374 11.6573 18.1419L11.4605 18.0448L11.2442 18.067C9.80001 18.2219 7.34643 18.628 7.16798 18.6576V16.8635L0 16.8633ZM1.41973 18.2832H5.75658V28.7481H1.41973V18.2832ZM11.1804 19.5087C15.0164 21.5518 15.457 21.8637 18.2929 23.5545C18.7529 23.9154 18.8754 24.3587 18.598 24.7579C18.449 24.9722 18.293 25.0571 18.0767 25.0932C17.8603 25.132 17.5616 25.0821 17.2198 24.9322C15.9427 24.3419 15.2478 23.9655 13.8369 23.1741L13.2185 22.8276L12.5253 24.0644L13.1436 24.4109C14.5637 25.2073 15.3137 25.6226 16.6347 26.2326H16.6458C17.1855 26.4731 17.7551 26.588 18.3151 26.4931C18.5475 26.4542 18.6993 26.2171 18.9113 26.1022L18.9335 26.1661L19.6156 25.9717C22.2766 25.1925 26.656 23.8369 27.5434 23.5649V23.5537C27.8788 23.451 28.3319 23.6203 28.4668 23.9751C28.5923 24.331 28.4286 24.6754 28.0647 24.8014C25.8123 25.579 22.7682 26.5909 20.1036 27.4468C17.5059 28.2813 15.3076 28.947 14.616 29.1161C11.9509 28.1906 9.30248 27.607 7.64492 27.0558L7.16798 26.9031V20.0929L7.28722 20.0761C7.28722 20.0761 9.7377 19.6799 11.1804 19.5106L11.1804 19.5087Z" fill="#403B45"/>
<path d="M0 16.8633L9.24425e-05 12.9525L-3.91075 12.9524V16.8633H0ZM0 30.1678H-3.91075V34.0786H0V30.1678ZM7.16799 30.1678V34.0786H11.0787V30.1678H7.16799ZM7.16799 28.3904L8.4969 24.7124L3.25725 22.8193V28.3904H7.16799ZM7.19848 28.4014L5.86957 32.0795L5.91679 32.0965L5.96443 32.1124L7.19848 28.4014ZM14.3997 30.5255L13.0829 34.2079L13.1147 34.2193L13.1468 34.2301L14.3997 30.5255ZM14.5966 30.5921L13.3437 34.2967L14.3909 34.6509L15.4685 34.4044L14.5966 30.5921ZM14.7907 30.5477L15.6626 34.36L15.6701 34.3583L15.6776 34.3566L14.7907 30.5477ZM20.539 28.8035L21.7351 32.5269V32.5269L20.539 28.8035ZM28.5305 26.1471L29.8066 29.8438L29.8104 29.8425L28.5305 26.1471ZM29.8005 23.4795L33.4682 22.1222L33.4623 22.1061L33.4562 22.0901L29.8005 23.4795ZM27.1302 22.1985L28.2761 25.9376L28.2777 25.9371L27.1302 22.1985ZM19.5629 24.4973L15.6543 24.3681L15.4755 29.7811L20.6699 28.2481L19.5629 24.4973ZM19.1719 22.4369L16.4087 25.2043L16.5742 25.3696L16.7583 25.514L19.1719 22.4369ZM19.1387 22.4037L21.902 19.6364L21.3392 19.0744L20.6016 18.7769L19.1387 22.4037ZM19.0971 22.3869L17.0935 25.7454L17.3535 25.9005L17.6342 26.0138L19.0971 22.3869ZM11.6573 18.1419L13.4928 14.6886L13.4403 14.6607L13.387 14.6344L11.6573 18.1419ZM11.4605 18.0448L13.1901 14.5373L12.1807 14.0396L11.0612 14.1545L11.4605 18.0448ZM11.2442 18.067L10.8449 14.1766L10.836 14.1776L10.8271 14.1785L11.2442 18.067ZM7.16798 18.6576H3.25723V23.2703L7.80777 22.5157L7.16798 18.6576ZM7.16798 16.8635H11.0787V12.9528L7.16807 12.9527L7.16798 16.8635ZM1.41973 18.2832V14.3724H-2.49101V18.2832H1.41973ZM5.75658 18.2832H9.66733V14.3724H5.75658V18.2832ZM5.75658 28.7481V32.6589H9.66733V28.7481H5.75658ZM1.41973 28.7481H-2.49101V32.6589H1.41973V28.7481ZM11.1804 19.5087L13.0188 16.057L7.32022 13.0219L7.26978 19.4782L11.1804 19.5087ZM18.2929 23.5545L20.707 20.4778L20.5104 20.3235L20.2956 20.1955L18.2929 23.5545ZM18.598 24.7579L15.3868 22.5258L15.3868 22.5258L18.598 24.7579ZM18.0767 25.0932L17.4332 21.2357L17.4092 21.2397L17.3852 21.2441L18.0767 25.0932ZM17.2198 24.9322L15.5791 28.4821L15.6138 28.4982L15.6489 28.5136L17.2198 24.9322ZM13.8369 23.1741L15.75 19.7633L15.7486 19.7625L13.8369 23.1741ZM13.2185 22.8276L15.1302 19.416L11.7191 17.5046L9.80714 20.9154L13.2185 22.8276ZM12.5253 24.0644L9.11391 22.1522L7.20143 25.564L10.6136 27.476L12.5253 24.0644ZM13.1436 24.4109L15.0567 21L15.0554 20.9992L13.1436 24.4109ZM16.6347 26.2326L14.9951 29.7831L15.7753 30.1434H16.6347V26.2326ZM16.6458 26.2326L18.237 22.6603L17.4774 22.3219H16.6458V26.2326ZM18.3151 26.4931L17.6701 22.6359L17.6614 22.6373L18.3151 26.4931ZM18.9113 26.1022L22.6051 24.8179L21.0935 20.4701L17.0471 22.6643L18.9113 26.1022ZM18.9335 26.1661L15.2396 27.4503L16.4526 30.9392L20.005 29.9271L18.9335 26.1661ZM19.6156 25.9717L20.6872 29.7328L20.7009 29.7289L20.7147 29.7248L19.6156 25.9717ZM27.5434 23.5649L28.6897 27.3038L31.4541 26.4563V23.5649H27.5434ZM27.5434 23.5537L26.3983 19.8143L23.6326 20.6613V23.5537H27.5434ZM28.4668 23.9751L32.1549 22.6743L32.1391 22.6298L32.1224 22.5856L28.4668 23.9751ZM28.0647 24.8014L29.3408 28.4981L29.344 28.497L28.0647 24.8014ZM20.1036 27.4468L21.2997 31.1702L21.2997 31.1702L20.1036 27.4468ZM14.616 29.1161L13.3332 32.8105L14.4237 33.1892L15.545 32.9149L14.616 29.1161ZM7.64492 27.0558L8.87909 23.3449L8.85815 23.3379L8.83712 23.3312L7.64492 27.0558ZM7.16798 26.9031H3.25724V29.7575L5.97578 30.6277L7.16798 26.9031ZM7.16798 20.0929L6.62316 16.2203L3.25724 16.6939V20.0929H7.16798ZM7.28722 20.0761L7.83204 23.9488L7.87186 23.9432L7.91156 23.9367L7.28722 20.0761ZM11.1804 19.5106L11.6361 23.3947L15.0641 22.9924L15.091 19.5411L11.1804 19.5106ZM-3.91075 16.8633V17.5676H3.91075V16.8633H-3.91075ZM-3.91075 17.5676V30.1678H3.91075V17.5676H-3.91075ZM0 34.0786H7.16799V26.2571H0V34.0786ZM11.0787 30.1678V28.3904H3.25725V30.1678H11.0787ZM5.83909 32.0685L5.86957 32.0795L8.52738 24.7234L8.4969 24.7124L5.83909 32.0685ZM5.96443 32.1124C7.03746 32.4692 8.33443 32.8045 9.48562 33.1166C10.7049 33.447 11.9122 33.7892 13.0829 34.2079L15.7166 26.8431C14.2392 26.3148 12.7827 25.9065 11.5317 25.5674C10.2127 25.2099 9.23311 24.9567 8.43253 24.6905L5.96443 32.1124ZM13.1468 34.2301L13.3437 34.2967L15.8496 26.8875L15.6527 26.8209L13.1468 34.2301ZM15.4685 34.4044L15.6626 34.36L13.9188 26.7354L13.7247 26.7798L15.4685 34.4044ZM15.6776 34.3566C16.7045 34.1175 19.1302 33.3637 21.7351 32.5269L19.3429 25.0802C16.6004 25.9612 14.5415 26.5904 13.9039 26.7388L15.6776 34.3566ZM21.7351 32.5269C24.4323 31.6604 27.5092 30.6368 29.8066 29.8438L27.2544 22.4504C25.0162 23.223 21.993 24.2288 19.3429 25.0802L21.7351 32.5269ZM29.8104 29.8425C32.9384 28.7591 34.6383 25.2842 33.4682 22.1222L26.1329 24.8367C25.7605 23.8305 26.2932 22.7833 27.2507 22.4517L29.8104 29.8425ZM33.4562 22.0901C32.2398 18.8898 28.8079 17.5928 25.9827 18.4599L28.2777 25.9371C27.5234 26.1686 26.523 25.8636 26.1449 24.8689L33.4562 22.0901ZM25.9843 18.4594C25.104 18.7292 21.0878 19.9697 18.456 20.7465L20.6699 28.2481C23.3531 27.4562 27.4317 26.1964 28.2761 25.9376L25.9843 18.4594ZM23.4715 24.6264C23.475 24.5206 23.4806 24.4936 23.5012 24.1807C23.5161 23.9555 23.5396 23.554 23.5097 23.1041C23.4447 22.1274 23.0909 20.5406 21.5856 19.3598L16.7583 25.514C16.3759 25.214 16.0845 24.8209 15.9045 24.4033C15.7412 24.0241 15.7121 23.7239 15.7055 23.6236C15.6995 23.5337 15.707 23.5095 15.6966 23.6662C15.6899 23.769 15.6878 23.7867 15.6772 23.9406C15.6693 24.0535 15.6597 24.2036 15.6543 24.3681L23.4715 24.6264ZM21.9352 19.6696L21.902 19.6364L16.3754 25.1711L16.4087 25.2043L21.9352 19.6696ZM20.6016 18.7769L20.56 18.7601L17.6342 26.0138L17.6758 26.0305L20.6016 18.7769ZM21.1007 19.0284C18.1371 17.2604 17.7949 16.9752 13.4928 14.6886L9.82189 21.5951C13.919 23.7728 14.083 23.9494 17.0935 25.7454L21.1007 19.0284ZM13.387 14.6344L13.1901 14.5373L9.73082 21.5522L9.9277 21.6493L13.387 14.6344ZM11.0612 14.1545L10.8449 14.1766L11.6434 21.9573L11.8597 21.9351L11.0612 14.1545ZM10.8271 14.1785C9.24877 14.3478 6.67618 14.775 6.52819 14.7996L7.80777 22.5157C8.01669 22.481 10.3512 22.0959 11.6613 21.9554L10.8271 14.1785ZM11.0787 18.6576V16.8635H3.25723V18.6576H11.0787ZM7.16807 12.9527L9.24425e-05 12.9525L-9.24425e-05 20.774L7.16789 20.7742L7.16807 12.9527ZM1.41973 22.1939H5.75658V14.3724H1.41973V22.1939ZM1.84583 18.2832V28.7481H9.66733V18.2832H1.84583ZM5.75658 24.8374H1.41973V32.6589H5.75658V24.8374ZM5.33048 28.7481V18.2832H-2.49101V28.7481H5.33048ZM9.34202 22.9604C13.0866 24.9548 13.4555 25.2235 16.2902 26.9136L20.2956 20.1955C17.4584 18.5039 16.9462 18.1488 13.0188 16.057L9.34202 22.9604ZM15.8789 26.6312C15.6677 26.4655 15.1627 25.9951 14.9367 25.1247C14.6785 24.1301 14.9335 23.1779 15.3868 22.5258L21.8091 26.99C22.5399 25.9387 22.8723 24.5653 22.5072 23.159C22.1743 21.8769 21.3782 21.0044 20.707 20.4778L15.8789 26.6312ZM15.3868 22.5258C15.5455 22.2974 15.8364 21.9574 16.3008 21.6693C16.7644 21.3816 17.1915 21.2761 17.4332 21.2357L18.7201 28.9506C19.1782 28.8742 19.7914 28.7082 20.4244 28.3154C21.0581 27.9223 21.5014 27.4326 21.8091 26.99L15.3868 22.5258ZM17.3852 21.2441C17.8504 21.1605 18.2089 21.2019 18.3974 21.2363C18.5999 21.2732 18.7319 21.325 18.7908 21.3509L15.6489 28.5136C16.3565 28.824 17.4863 29.1726 18.7681 28.9423L17.3852 21.2441ZM18.8606 21.3823C17.7179 20.8541 17.1242 20.5341 15.75 19.7633L11.9237 26.585C13.3714 27.397 14.1675 27.8297 15.5791 28.4821L18.8606 21.3823ZM15.7486 19.7625L15.1302 19.416L11.3068 26.2393L11.9251 26.5858L15.7486 19.7625ZM9.80714 20.9154L9.11391 22.1522L15.9366 25.9766L16.6299 24.7398L9.80714 20.9154ZM10.6136 27.476L11.2319 27.8225L15.0554 20.9992L14.437 20.6527L10.6136 27.476ZM11.2306 27.8218C12.668 28.6279 13.5282 29.1057 14.9951 29.7831L18.2744 22.6822C17.0992 22.1395 16.4594 21.7867 15.0567 21L11.2306 27.8218ZM16.6347 30.1434H16.6458V22.3219H16.6347V30.1434ZM15.0545 29.805C16.083 30.2631 17.4457 30.607 18.9688 30.3488L17.6614 22.6373C18.0645 22.569 18.2881 22.683 18.237 22.6603L15.0545 29.805ZM18.9601 30.3503C19.6002 30.2432 20.1045 30.0109 20.4565 29.8042C20.7892 29.6089 21.0333 29.407 21.1355 29.3213C21.1874 29.2776 21.2405 29.2314 21.2498 29.2234C21.2709 29.2051 21.2591 29.2156 21.2377 29.2332C21.1998 29.2641 21.0324 29.4007 20.7755 29.54L17.0471 22.6643C16.6842 22.8611 16.4183 23.0704 16.2851 23.1794C16.216 23.2359 16.1573 23.2867 16.1318 23.3088C16.0944 23.3412 16.101 23.3354 16.1062 23.331C16.1149 23.3238 16.2642 23.1956 16.4965 23.0593C16.748 22.9116 17.1461 22.7235 17.6701 22.6359L18.9601 30.3503ZM15.2174 27.3865L15.2396 27.4503L22.6273 24.8818L22.6051 24.8179L15.2174 27.3865ZM20.005 29.9271L20.6872 29.7328L18.5441 22.2106L17.8619 22.405L20.005 29.9271ZM20.7147 29.7248C23.4069 28.9364 27.826 27.5686 28.6897 27.3038L26.3971 19.8259C25.4859 20.1052 21.1462 21.4485 18.5166 22.2186L20.7147 29.7248ZM31.4541 23.5649V23.5537H23.6326V23.5649H31.4541ZM28.6885 27.293C27.8593 27.5469 27.102 27.4286 26.538 27.1866C25.9561 26.9369 25.1977 26.3814 24.8112 25.3645L32.1224 22.5856C31.601 21.2139 30.5486 20.3964 29.6225 19.999C28.7144 19.6093 27.5628 19.4577 26.3983 19.8143L28.6885 27.293ZM24.7787 25.2758C24.5244 24.5547 24.508 23.6424 24.9281 22.773C25.3489 21.902 26.0731 21.3524 26.7854 21.1058L29.344 28.497C30.4203 28.1244 31.4082 27.3396 31.9705 26.1759C32.532 25.0138 32.5347 23.7513 32.1549 22.6743L24.7787 25.2758ZM26.7886 21.1047C24.5664 21.8719 21.5493 22.8748 18.9076 23.7235L21.2997 31.1702C23.9871 30.3069 27.0581 29.2861 29.3408 28.4981L26.7886 21.1047ZM18.9076 23.7235C16.2736 24.5696 14.2168 25.1878 13.6871 25.3173L15.545 32.9149C16.3984 32.7062 18.7382 31.993 21.2997 31.1702L18.9076 23.7235ZM15.8989 25.4218C14.4383 24.9146 13.0066 24.5093 11.7891 24.1747C10.5037 23.8214 9.57966 23.5779 8.87909 23.3449L6.41075 30.7667C7.36774 31.0849 8.59675 31.4088 9.71621 31.7165C10.9036 32.0429 12.1287 32.3922 13.3332 32.8105L15.8989 25.4218ZM8.83712 23.3312L8.36018 23.1785L5.97578 30.6277L6.45272 30.7804L8.83712 23.3312ZM11.0787 26.9031V20.0929H3.25724V26.9031H11.0787ZM7.71281 23.9655L7.83204 23.9488L6.74239 16.2035L6.62316 16.2203L7.71281 23.9655ZM7.28722 20.0761C7.91156 23.9367 7.91152 23.9367 7.91149 23.9367C7.91149 23.9367 7.91147 23.9368 7.91148 23.9368C7.91149 23.9367 7.91153 23.9367 7.91162 23.9367C7.91179 23.9367 7.9121 23.9366 7.91256 23.9366C7.91348 23.9364 7.91499 23.9362 7.91706 23.9358C7.92121 23.9352 7.92763 23.9341 7.93622 23.9328C7.9534 23.93 7.97925 23.9258 8.01293 23.9205C8.08031 23.9097 8.17892 23.894 8.30205 23.8746C8.54859 23.8357 8.89205 23.7821 9.27907 23.7234C10.0675 23.6038 10.9851 23.4711 11.6361 23.3947L10.7246 15.6265C9.93302 15.7194 8.90401 15.8694 8.10651 15.9903C7.70058 16.0518 7.34125 16.1079 7.08324 16.1486C6.9541 16.169 6.84999 16.1856 6.77773 16.1971C6.74158 16.2029 6.71338 16.2074 6.69396 16.2105C6.68425 16.2121 6.67673 16.2133 6.67152 16.2142C6.66891 16.2146 6.66688 16.2149 6.66543 16.2151C6.66471 16.2153 6.66413 16.2154 6.66371 16.2154C6.66349 16.2155 6.66332 16.2155 6.66318 16.2155C6.66311 16.2155 6.66303 16.2155 6.663 16.2155C6.66293 16.2155 6.66287 16.2156 7.28722 20.0761ZM15.091 19.5411L15.091 19.5393L7.26978 19.4782L7.26976 19.48L15.091 19.5411Z" fill="#403B45" mask="url(#path-1-inside-1_383_2671)"/>
<mask id="path-3-inside-2_383_2671" fill="white">
<rect x="6.44478" width="22.7157" height="14.1973" rx="1"/>
</mask>
<rect x="6.44478" width="22.7157" height="14.1973" rx="1" stroke="#403B45" stroke-width="3" stroke-linecap="round" mask="url(#path-3-inside-2_383_2671)"/>
<path d="M9.99412 14.9072V15.6171C9.99412 16.4012 10.6298 17.0368 11.4139 17.0368H30.5803C31.3644 17.0368 32 16.4012 32 15.6171V4.96905C32 4.18495 31.3644 3.54932 30.5803 3.54932H29.8704V4.96905H30.5803V15.6171H11.4139V14.9072H9.99412Z" fill="#403B45"/>
<path d="M9.99412 14.9072V15.6171C9.99412 16.4012 10.6298 17.0368 11.4139 17.0368H30.5803C31.3644 17.0368 32 16.4012 32 15.6171V4.96905C32 4.18495 31.3644 3.54932 30.5803 3.54932H29.8704V4.96905H30.5803V15.6171H11.4139V14.9072H9.99412Z" stroke="#403B45"/>
<circle cx="17.8027" cy="7.0986" r="1.6296" fill="#403B45" stroke="#403B45"/>
<circle cx="12.4786" cy="7.09874" r="0.564801" fill="#403B45" stroke="#403B45"/>
<circle cx="23.1267" cy="7.09874" r="0.564801" fill="#403B45" stroke="#403B45"/>
</svg>
